<?xml version="1.0" encoding="UTF-8"?>
<svg width="106px" height="106px" viewBox="0 0 106 106" version="1.1" xmlns="http://www.w3.org/2000/svg" xmlns:xlink="http://www.w3.org/1999/xlink">
    <!-- Generator: Sketch 48.2 (47327) - http://www.bohemiancoding.com/sketch -->
    <title>Group 5</title>
    <desc>Created with Sketch.</desc>
    <defs>
        <linearGradient x1="49.9978106%" y1="0.00439279889%" x2="49.9978106%" y2="99.9998218%" id="linearGradient-1">
            <stop stop-color="#2AF598" offset="0%"></stop>
            <stop stop-color="#009EFD" offset="100%"></stop>
        </linearGradient>
    </defs>
    <g id="Page-1" stroke="none" stroke-width="1" fill="none" fill-rule="evenodd">
        <g id="Group-5" fill="url(#linearGradient-1)" fill-rule="nonzero">
            <path d="M105.98323,77.8420967 C105.926711,62.8782605 93.7375391,50.7224083 78.7631758,50.7224083 L71.2077773,50.7224083 L71.2077773,59.0036939 L73.6917383,59.0036939 C79.3987617,59.0036939 84.0416445,63.6472932 84.0416445,69.3551974 C84.0416445,75.0631015 79.3987617,79.7067008 73.6917383,79.7067008 L64.2656055,79.7067008 C64.044082,82.4500812 63.7051719,85.2120972 63.2505312,87.9879864 L73.6917383,87.9879864 C83.9642148,87.9879864 92.3216523,79.6292592 92.3216523,69.3551974 C92.3216523,67.4802401 92.0421602,65.6696795 91.5247891,63.9614081 C95.3192578,67.4278531 97.7036367,72.414142 97.7036367,77.9468707 L97.7199922,77.9481131 C97.6585039,89.4100965 87.5723555,97.7183003 73.6917383,97.7183003 L52.6215469,97.7183003 C55.0641016,88.9876876 56.3035977,80.3595711 56.3035977,72.0002227 L56.3035977,71.9517699 C56.3035977,52.4722994 49.5069687,35.0493807 43.8053281,23.8632055 C37.6469766,11.7808607 31.521543,4.30215209 31.2637891,3.98969372 L28.0597734,0.105395168 L24.8683867,4.00066807 C24.6122891,4.31312644 18.5286758,11.7918351 12.4117305,23.8735586 C6.74963281,35.0578703 0,52.477476 0,71.952184 L0,72.0008439 C0,80.3597782 1.23142187,88.9876876 3.65844922,97.7187144 L0,97.7187144 L0,106 L73.6915312,106 C82.3284609,106 90.3374648,103.318325 96.2430312,98.4490263 C102.535125,93.2610579 106,85.9432373 106,77.8435462 L105.98323,77.8420967 Z M48.0237969,71.952184 L48.0237969,72.0006368 C48.0237969,80.3102901 46.6665,88.9485526 43.9949687,97.7187144 L32.4989375,97.7187144 L32.4989375,20.5236902 C39.2442227,31.8931163 48.0237969,50.7611292 48.0237969,71.952184 Z M8.28000781,72.0008439 L8.28000781,71.952184 C8.28000781,54.1921664 14.4909453,38.143319 19.7015078,27.8071382 C21.2387148,24.7577185 22.7823398,22.0110251 24.2189297,19.6229653 L24.2189297,97.7185073 L12.2802656,97.7185073 C9.62778125,88.9489667 8.28000781,80.3102901 8.28000781,72.0008439 Z M87.3535234,37.2655781 C97.626,37.2655781 105.983437,28.9068509 105.983437,18.632789 C105.983437,8.35872723 97.626,0 87.3535234,0 C77.0810469,0 68.7236094,8.35872723 68.7236094,18.632789 C68.7236094,28.9068509 77.0810469,37.2655781 87.3535234,37.2655781 Z M87.3535234,8.28128559 C93.0605469,8.28128559 97.7034297,12.9248849 97.7034297,18.632789 C97.7034297,24.3406932 93.0605469,28.9842925 87.3535234,28.9842925 C81.6465,28.9842925 77.0036172,24.3406932 77.0036172,18.632789 C77.0036172,12.9248849 81.6465,8.28128559 87.3535234,8.28128559 Z" id="Shape"></path>
        </g>
    </g>
</svg>